<mxfile host="65bd71144e">
    <diagram name="Page-1" id="e3a06f82-3646-2815-327d-82caf3d4e204">
        <mxGraphModel dx="2262" dy="1580" grid="1" gridSize="10" guides="1" tooltips="1" connect="1" arrows="1" fold="1" page="1" pageScale="1.5" pageWidth="1169" pageHeight="826" background="none" math="0" shadow="0">
            <root>
                <mxCell id="0" style=";html=1;"/>
                <mxCell id="1" style=";html=1;" parent="0"/>
            </root>
        </mxGraphModel>
    </diagram>
</mxfile>